<svg width="20" height="20" viewBox="0 0 20 20" fill="none" xmlns="http://www.w3.org/2000/svg">
<path d="M0.750244 0.75L2.83024 1.11L3.79324 12.583C3.87024 13.52 4.65324 14.239 5.59324 14.236H16.5022C17.3992 14.238 18.1602 13.578 18.2872 12.69L19.2362 6.132C19.3422 5.399 18.8332 4.719 18.1012 4.613C18.0372 4.604 3.16424 4.599 3.16424 4.599" stroke="#AAACAE" stroke-width="1.5" stroke-linecap="round" stroke-linejoin="round"/>
<path d="M12.1252 8.29492H14.8982" stroke="#130F26" stroke-opacity="0.4" stroke-width="1.5" stroke-linecap="round" stroke-linejoin="round"/>
<path fill-rule="evenodd" clip-rule="evenodd" d="M5.1546 17.7026C5.4556 17.7026 5.6986 17.9466 5.6986 18.2466C5.6986 18.5476 5.4556 18.7916 5.1546 18.7916C4.8536 18.7916 4.6106 18.5476 4.6106 18.2466C4.6106 17.9466 4.8536 17.7026 5.1546 17.7026Z" fill="#AAACAE" stroke="#AAACAE" stroke-width="1.5" stroke-linecap="round" stroke-linejoin="round"/>
<path fill-rule="evenodd" clip-rule="evenodd" d="M16.4349 17.7026C16.7359 17.7026 16.9799 17.9466 16.9799 18.2466C16.9799 18.5476 16.7359 18.7916 16.4349 18.7916C16.1339 18.7916 15.8909 18.5476 15.8909 18.2466C15.8909 17.9466 16.1339 17.7026 16.4349 17.7026Z" fill="#130F26" fill-opacity="0.4" stroke="#130F26" stroke-opacity="0.4" stroke-width="1.5" stroke-linecap="round" stroke-linejoin="round"/>
</svg>
