<svg width="48" height="44" viewBox="0 0 48 44" fill="none" xmlns="http://www.w3.org/2000/svg">
<path d="M45.2999 26.1669C45.2999 27.0307 44.9486 27.8119 44.3807 28.3774C43.8118 28.9429 43.0272 29.2927 42.1607 29.2927H5.83922C4.10616 29.2927 2.7 27.8936 2.7 26.1669C2.7 25.7044 2.8005 25.2662 2.98106 24.8717C3.13716 24.5311 3.35329 24.2211 3.61922 23.9564C4.18809 23.3909 4.97269 23.0412 5.83922 23.0412H42.1608C43.4303 23.0412 44.5242 23.7912 45.0189 24.8717C45.2048 25.2784 45.3006 25.7201 45.2999 26.1669Z" fill="#884D00"/>
<path d="M45.0189 24.8717C44.8625 25.2119 44.6464 25.5215 44.3808 25.7861C43.8119 26.3516 43.0273 26.7014 42.1608 26.7014H5.83922C4.57069 26.7014 3.47681 25.9513 2.98106 24.8718C3.13712 24.5312 3.35326 24.2212 3.61922 23.9565C4.18809 23.391 4.97269 23.0412 5.83922 23.0412H42.1608C43.4302 23.0411 44.5241 23.7913 45.0189 24.8717Z" fill="#AA6100"/>
<path d="M48 31.8159C48 35.8433 46.1274 38.8359 43.1004 40.8209C40.0725 42.8069 35.8902 43.7854 31.2707 43.7854H16.7292C7.49035 43.7854 0 39.8707 0 31.8159C0 31.367 0.112219 30.9414 0.315188 30.5586C0.486937 30.2322 0.724031 29.9377 1.01194 29.687C1.6365 29.1419 2.50106 28.8048 3.45441 28.8048H44.5457C45.9382 28.8048 47.1384 29.5237 47.6849 30.5586C47.8878 30.9415 48 31.3671 48 31.8159Z" fill="#FFA733"/>
<path d="M47.6848 30.5587C47.033 33.2404 45.3995 35.3293 43.1004 36.8373C40.0725 38.8233 35.8902 39.8017 31.2707 39.8017H16.7292C8.60072 39.8017 1.82672 36.7721 0.315188 30.5586C0.486937 30.2322 0.724031 29.9377 1.01194 29.687C1.6365 29.1419 2.50106 28.8049 3.45441 28.8049H44.5457C45.9382 28.8049 47.1383 29.5239 47.6848 30.5587Z" fill="#FFB655"/>
<path d="M37.3488 21.7295L29.2281 29.8154C29.0283 30.0141 28.8101 30.1934 28.5762 30.3508C26.8568 31.5099 24.5013 31.3322 22.978 29.8154L14.8573 21.7295H37.3488Z" fill="#EEBF00"/>
<path d="M37.3488 21.7295L29.2281 29.8154C29.0283 30.0141 28.8101 30.1934 28.5762 30.3508C27.9373 30.1343 27.3573 29.7739 26.8812 29.2976L19.2806 21.7295H37.3488Z" fill="#FFD422"/>
<path d="M47.0886 22.8576C47.0886 23.2812 47.0183 23.7145 46.8661 24.1372C46.2698 25.7938 44.6735 26.437 43.4293 25.5217L41.9373 24.4248C40.8961 23.6582 39.568 23.972 38.8147 25.1633L38.7512 25.2633C38.0281 26.4079 36.7673 26.7479 35.7379 26.0775L32.3967 23.902C31.6258 23.4007 30.7017 23.4551 29.9719 24.0468L27.2943 26.2155C26.5253 26.8383 25.5457 26.8645 24.7562 26.2825L21.7019 24.0283C20.9212 23.4522 19.9533 23.4706 19.1873 24.0769L16.4062 26.2758C15.6597 26.8656 14.721 26.8995 13.9492 26.3661L10.3484 23.8749C9.63994 23.3852 8.78616 23.3715 8.06794 23.8389L4.70925 26.0261C2.47266 26.3127 1.38469 24.6775 1.38469 24.6775C0.849 23.7505 0.795281 22.6516 1.08516 21.7295C1.42959 20.6277 2.26397 19.7786 3.34903 19.7786H44.6521C45.7157 19.7786 46.5656 20.6151 46.915 21.7247C47.0306 22.0913 47.0892 22.4733 47.0886 22.8576Z" fill="#6DC82A"/>
<path d="M46.9149 21.7247C46.9003 21.7732 46.8837 21.8208 46.8662 21.8695C46.2699 23.527 44.6736 24.1703 43.4294 23.255L41.9374 22.1571C40.8962 21.3914 39.5681 21.7053 38.8148 22.8955L38.7513 22.9966C38.0282 24.1411 36.7674 24.4812 35.738 23.8107L32.3968 21.6353C31.6259 21.1329 30.7018 21.1883 29.972 21.78L27.2944 23.9487C26.5254 24.5715 25.5457 24.5968 24.7563 24.0148L21.702 21.7606C20.9213 21.1845 19.9534 21.2039 19.1873 21.8092L16.4062 24.0089C15.6597 24.5978 14.721 24.6327 13.9492 24.0993L10.3484 21.608C9.63994 21.1174 8.78616 21.1037 8.06794 21.5721L4.70925 23.7582C2.47266 24.0458 1.38469 22.4096 1.38469 22.4096C1.26074 22.1942 1.16032 21.9662 1.08516 21.7295C1.42959 20.6277 2.26397 19.7784 3.34903 19.7784H44.6521C45.7156 19.7785 46.5655 20.6151 46.9149 21.7247Z" fill="#7ED63E"/>
<path d="M46.2552 17.7789C46.2619 18.093 46.2215 18.4064 46.1352 18.7087C45.7576 20.0185 44.5456 20.9765 43.1092 20.9765C37.4691 20.9765 22.4465 20.8502 20.1807 20.925C20.13 20.9269 20.0793 20.9289 20.0295 20.9298C17.1684 21.0376 16.5166 21.4943 16.5166 23.013V28.5697C16.5166 28.8554 16.4004 29.1148 16.2122 29.3023C16.1158 29.3986 16.0013 29.4749 15.8752 29.5269C15.7491 29.5789 15.6139 29.6056 15.4774 29.6054C14.9026 29.6054 14.4371 30.0689 14.4371 30.6412V33.0615C14.4371 33.3073 14.4079 33.5454 14.3512 33.7747C14.0303 35.0981 12.8309 36.0804 11.3906 36.0804H11.3136C9.67612 36.0804 8.35097 34.7561 8.35584 33.1257L8.36953 28.7446C8.36976 28.5846 8.40168 28.4262 8.46347 28.2785C8.52526 28.1308 8.6157 27.9967 8.72962 27.8838C8.8434 27.7705 8.9785 27.6807 9.1272 27.6195C9.2759 27.5583 9.43526 27.527 9.59616 27.5272C10.2734 27.5272 10.8228 26.9802 10.8228 26.3058V23.013C10.8228 21.8879 9.9075 20.9765 8.77753 20.9765H4.95028C3.228 20.9765 1.77891 19.623 1.74375 17.9081C1.70859 16.1485 3.13134 14.7105 4.89075 14.7105H43.0468C44.77 14.7105 46.2211 16.064 46.2552 17.7789Z" fill="#FF3501"/>
<path d="M46.2552 17.7789C46.2619 18.093 46.2215 18.4064 46.1352 18.7087C40.1643 18.7029 25.8969 18.5853 23.6936 18.6572C20.7037 18.7553 20.0295 19.2013 20.0295 20.7462V20.9298C17.1684 21.0376 16.5166 21.4943 16.5166 23.013V28.5697C16.5166 28.8554 16.4004 29.1148 16.2122 29.3023C16.1158 29.3986 16.0013 29.4749 15.8752 29.5269C15.7491 29.5789 15.6139 29.6056 15.4774 29.6054C14.9026 29.6054 14.4371 30.0689 14.4371 30.6412V33.0615C14.4371 33.3073 14.4079 33.5454 14.3512 33.7747C12.9402 33.5483 11.8639 32.327 11.8687 30.8579L11.8824 26.4778C11.8826 26.3178 11.9144 26.1593 11.9762 26.0116C12.038 25.8639 12.1285 25.7297 12.2425 25.6169C12.3563 25.5036 12.4914 25.4138 12.6401 25.3526C12.7888 25.2915 12.9482 25.2601 13.1091 25.2603C13.7863 25.2603 14.3357 24.7133 14.3357 24.039V20.7461C14.3357 19.621 13.4204 18.7096 12.2904 18.7096H8.46319C6.74091 18.7096 5.29181 17.3562 5.25666 15.6413C5.24983 15.3267 5.29063 15.0129 5.37769 14.7105H43.0468C44.77 14.7105 46.2211 16.064 46.2552 17.7789Z" fill="#FF5023"/>
<path d="M28.2535 11.5255L21.2911 18.461C20.5934 19.1556 19.7708 19.6502 18.8945 19.9427C16.734 20.6695 14.2516 20.1749 12.5322 18.461L5.56697 11.5255H28.2535Z" fill="#EEBF00"/>
<path d="M28.2535 11.5255L21.2911 18.461C20.5934 19.1556 19.7708 19.6502 18.8945 19.9427C18.0191 19.6502 17.1966 19.1556 16.4998 18.461L9.53447 11.5255H28.2535Z" fill="#FFD422"/>
<path d="M48 12.501C48 12.5526 47.998 12.6031 47.9951 12.6536C47.9585 13.2846 47.69 13.8802 47.2408 14.3267C47.0003 14.5669 46.7145 14.7572 46.3998 14.887C46.0852 15.0167 45.7478 15.0832 45.4072 15.0827H2.59275C1.16119 15.0826 0 13.9264 0 12.501C0 9.4074 1.44028 7.07836 3.61538 5.3265C5.38059 3.90406 7.63078 2.86145 9.98644 2.09684C16.5771 -0.0397142 24 5.19242e-05 24 5.19242e-05C24 5.19242e-05 48 -0.129141 48 12.501Z" fill="#FFA733"/>
<path d="M48 12.501C48 12.5526 47.998 12.6031 47.9951 12.6536H7.86206C6.43059 12.6536 5.26931 11.4974 5.26931 10.0719C5.26931 6.97829 6.70959 4.64926 8.88469 2.89748C9.234 2.61567 9.60197 2.34953 9.98644 2.09684C16.5771 -0.0397142 24 5.19242e-05 24 5.19242e-05C24 5.19242e-05 48 -0.129141 48 12.501Z" fill="#FFB655"/>
<path d="M36.9 4.51642C37.3162 4.95497 37.2965 5.6464 36.8561 6.06087C36.4157 6.47524 35.7213 6.45564 35.3051 6.01718C34.889 5.57872 34.1229 4.0593 34.5634 3.64483C35.0038 3.23036 36.4838 4.07778 36.9 4.51642ZM31.0842 9.91558C31.3014 10.4788 31.019 11.1108 30.4533 11.3271C29.8876 11.5434 29.2529 11.2621 29.0357 10.6989C28.8185 10.1356 28.6909 8.44031 29.2565 8.22402C29.8222 8.00783 30.867 9.35232 31.0842 9.91558ZM25.0972 5.42227C25.0972 6.02567 24.6059 6.51472 24 6.51472C23.394 6.51472 22.9028 6.02558 22.9028 5.42227C22.9028 4.81887 23.3941 3.19078 24 3.19078C24.606 3.19069 25.0972 4.81887 25.0972 5.42227ZM19.0644 10.6002C18.9129 11.1844 18.3144 11.5356 17.7277 11.3848C17.1411 11.2339 16.7883 10.638 16.9398 10.0538C17.0913 9.46966 17.9758 8.01558 18.5626 8.16643C19.1493 8.31728 19.2159 10.0161 19.0644 10.6002ZM13.0283 5.8415C12.7642 6.38441 12.108 6.61143 11.5626 6.34838C11.0173 6.08532 10.7893 5.43198 11.0535 4.88888C11.3177 4.34597 12.4726 3.0938 13.018 3.35694C13.5634 3.62009 13.2925 5.29859 13.0283 5.8415Z" fill="#FFF5CC"/>
</svg>
