<svg width="48" height="48" viewBox="0 0 48 48" fill="none" xmlns="http://www.w3.org/2000/svg">
<g clip-path="url(#clip0_832_2571)">
<path d="M43.6926 33.492L43.0184 31.8632L35.2648 13.1351C35.1934 12.9629 35.0565 12.826 34.8843 12.7546L14.5106 4.31737C14.4217 4.2803 14.3262 4.26199 14.2299 4.26358C14.1336 4.26518 14.0387 4.28665 13.9511 4.32665C13.8635 4.36644 13.785 4.42381 13.7204 4.49521C13.6559 4.5666 13.6067 4.65049 13.5759 4.74168L12.3124 8.47537L0.147649 44.4159L0.144368 44.4272C-0.187132 45.4084 0.0614931 46.4736 0.794056 47.2062C1.16062 47.5728 1.61015 47.8181 2.09071 47.9301C2.57137 48.0422 3.08315 48.021 3.57365 47.8552L26.6288 40.0565L27.9056 38.7372L33.7738 37.6394L39.536 35.6903L43.2689 34.4274C43.36 34.3965 43.4438 34.3472 43.5151 34.2825C43.5864 34.2178 43.6436 34.1392 43.6832 34.0515C43.7229 33.9638 43.7442 33.8689 43.7458 33.7727C43.7475 33.6765 43.7293 33.5809 43.6926 33.492Z" fill="#F9D11F"/>
<path d="M43.269 34.4275L39.5361 35.6904L33.7739 37.6394L27.9057 38.7373L26.629 40.0565L3.57367 47.8553C3.08308 48.021 2.57129 48.0422 2.09073 47.9302C1.61008 47.8182 1.16064 47.5729 0.794075 47.2063C0.0615129 46.4737 -0.187018 45.4083 0.144388 44.4272L0.147669 44.416C0.637777 44.8396 1.22997 45.128 1.86571 45.2527C2.50145 45.3773 3.15871 45.3339 3.77251 45.1267L43.0183 31.8632L43.6925 33.492C43.7292 33.581 43.7473 33.6765 43.7457 33.7727C43.7441 33.8689 43.7228 33.9637 43.6831 34.0514C43.6434 34.139 43.5862 34.2176 43.515 34.2823C43.4438 34.347 43.3601 34.3964 43.269 34.4275Z" fill="#FFA402"/>
<path d="M43.269 34.4274L39.5361 35.6903C39.3438 34.8741 39.1174 34.0664 38.8572 33.2692C37.4399 28.923 34.6589 23.6931 29.3761 18.4088C23.0663 12.1029 17.0815 9.61162 12.3389 8.50058L12.3124 8.47537L13.5759 4.74168C13.6067 4.6505 13.6559 4.56661 13.7205 4.49522C13.785 4.42383 13.8635 4.36645 13.9511 4.32665C14.0387 4.28665 14.1336 4.26518 14.2299 4.26358C14.3262 4.26199 14.4218 4.2803 14.5106 4.31737L34.8843 12.7546C35.0565 12.826 35.1934 12.9629 35.2648 13.1351L43.0184 31.8632L43.6926 33.492C43.7293 33.5809 43.7475 33.6765 43.7459 33.7727C43.7443 33.8689 43.723 33.9638 43.6833 34.0515C43.6437 34.1392 43.5865 34.2178 43.5152 34.2825C43.4439 34.3472 43.3601 34.3965 43.269 34.4274Z" fill="#FDEDA5"/>
<path d="M43.269 34.4275L39.5361 35.6904C39.3439 34.8742 39.1174 34.0664 38.8572 33.2693L43.0184 31.8632L43.6926 33.492C43.7293 33.581 43.7475 33.6765 43.7459 33.7727C43.7443 33.869 43.723 33.9639 43.6833 34.0515C43.6437 34.1392 43.5865 34.2179 43.5152 34.2826C43.444 34.3472 43.3602 34.3966 43.269 34.4275Z" fill="#FBDF63"/>
<path d="M47.9392 32.7588C46.8945 27.7788 43.9577 20.151 35.9012 12.0943C27.8434 4.04025 20.2145 1.10485 15.2332 0.0600018C13.7689 -0.246936 12.3263 0.653345 11.9465 2.08331C11.9339 2.13169 11.9224 2.18033 11.912 2.22919C11.7575 2.96306 11.8987 3.71156 12.3091 4.33931C12.4155 4.50316 12.5388 4.65537 12.677 4.79344C13.0582 5.17463 13.5414 5.43778 14.0811 5.55056C18.3172 6.43894 24.8523 8.98322 31.9343 16.0614C39.0137 23.1423 41.5594 29.6762 42.4483 33.9104C42.559 34.443 42.8231 34.9315 43.2081 35.3158L43.2087 35.3165C43.8816 35.9893 44.8395 36.2751 45.7696 36.0795C45.8188 36.0692 45.8676 36.0575 45.9161 36.0443C46.587 35.8667 47.1605 35.4536 47.5423 34.8689C47.9526 34.2412 48.0931 33.492 47.9392 32.7588Z" fill="#F79E60"/>
<path d="M47.9393 32.7588C46.8945 27.7788 43.9577 20.151 35.9012 12.0943C27.8434 4.04025 20.2145 1.10485 15.2333 0.0600018C13.7689 -0.246936 12.3263 0.653346 11.9465 2.08331C12.3704 1.96981 12.8151 1.95799 13.2444 2.04881C18.2257 3.09366 25.8546 6.02906 33.9125 14.0831C41.969 22.1398 44.9058 29.7676 45.9505 34.7476C46.042 35.1838 46.0295 35.626 45.916 36.0443C46.5869 35.8667 47.1604 35.4536 47.5422 34.8689C47.9526 34.2412 48.0931 33.492 47.9393 32.7588Z" fill="#D77D41"/>
<path d="M22.2606 18.6233C22.2605 17.4409 21.8001 16.3293 20.9639 15.493L20.9635 15.4927C19.2369 13.7665 16.4276 13.7665 14.7011 15.4927C13.8647 16.3289 13.4041 17.4407 13.4041 18.6234C13.4041 19.8059 13.8646 20.9175 14.7007 21.7537C14.7009 21.7539 14.701 21.754 14.7011 21.7542C16.4277 23.4803 19.237 23.4803 20.9635 21.7542C21.7999 20.9179 22.2605 19.806 22.2606 18.6233ZM18.5796 29.4131L18.5794 29.4128C16.8528 27.6867 14.0435 27.6867 12.317 29.4128C11.4805 30.2491 11.0198 31.361 11.0198 32.5436C11.0198 33.7261 11.4803 34.8377 12.3165 35.6739C12.3166 35.6741 12.3168 35.6742 12.317 35.6743C14.0436 37.4004 16.8529 37.4004 18.5794 35.6743C19.4158 34.8381 19.8764 33.7263 19.8764 32.5435C19.8764 31.3611 19.4159 30.2495 18.5796 29.4131ZM33.7746 37.6401L26.6236 40.0405L26.3153 39.7323C25.7903 39.2072 25.4137 38.5734 25.2056 37.8827C25.0811 37.4672 25.0181 37.0356 25.0187 36.6019C25.0187 35.4192 25.4794 34.3074 26.3153 33.4715C27.1791 32.609 28.3134 32.1774 29.447 32.1774C30.5806 32.1774 31.7149 32.609 32.5779 33.4721C33.0347 33.9289 33.3781 34.4646 33.5968 35.0466C33.8513 35.7241 33.9362 36.4626 33.8334 37.2084L33.7746 37.6401Z" fill="#ED2061"/>
<path d="M33.7746 37.6401L26.6236 40.0406L26.3153 39.7323C25.7903 39.2072 25.4138 38.5735 25.2056 37.8827L33.5969 35.0467C33.8514 35.7242 33.9363 36.4627 33.8335 37.2086L33.7746 37.6401Z" fill="#C71E54"/>
<path d="M10.5939 38.0149C10.5722 37.8649 10.5026 37.726 10.3954 37.6188C10.2882 37.5116 10.1493 37.442 9.99929 37.4203C9.94379 37.4122 9.43847 37.3432 8.79357 37.4036C7.86947 37.49 7.10991 37.8068 6.59682 38.3197C6.08372 38.8327 5.76675 39.5923 5.68032 40.5163C5.61994 41.1612 5.68904 41.6663 5.6971 41.7218C5.71941 41.8758 5.79113 42.0133 5.89566 42.1179C6.00019 42.2225 6.13772 42.2941 6.29175 42.3165C6.34716 42.3246 6.85247 42.3935 7.49747 42.3331C8.42157 42.2467 9.18113 41.9299 9.69422 41.417C10.2073 40.904 10.5243 40.1445 10.6107 39.2205C10.671 38.5755 10.602 38.0704 10.5939 38.0149ZM26.7877 30.3974C26.8082 30.3451 26.9906 29.869 27.0789 29.2274C27.2056 28.308 27.0702 27.4962 26.6877 26.8798C26.3051 26.2632 25.6378 25.7816 24.7577 25.4868C24.1434 25.281 23.6358 25.233 23.58 25.2282C23.429 25.2152 23.2778 25.2513 23.1491 25.3313C23.0203 25.4112 22.9208 25.5305 22.8654 25.6716C22.8448 25.7237 22.6625 26.1999 22.5741 26.8415C22.4475 27.7608 22.5828 28.5726 22.9653 29.1891C23.0754 29.3655 23.2055 29.5285 23.353 29.675C23.7391 30.0611 24.2621 30.37 24.8952 30.582C25.5095 30.7879 26.0171 30.8359 26.0729 30.8407C26.2239 30.8537 26.3751 30.8176 26.5039 30.7377C26.6327 30.6578 26.7322 30.5384 26.7877 30.3974Z" fill="#68C044"/>
<path d="M13.9786 25.4332L12.9058 23.7608C12.8051 23.6038 12.6462 23.4933 12.464 23.4535C12.2818 23.4137 12.0913 23.4479 11.9343 23.5486C11.7774 23.6493 11.6668 23.8082 11.627 23.9904C11.5872 24.1726 11.6215 24.3631 11.7221 24.5201L12.7949 26.1925C12.8229 26.2361 12.8547 26.2755 12.8899 26.3107C13.0127 26.433 13.1763 26.5058 13.3493 26.5149C13.5224 26.524 13.6928 26.4689 13.8277 26.3601C13.9627 26.2514 14.0527 26.0966 14.0806 25.9255C14.1084 25.7545 14.0721 25.5791 13.9786 25.4332ZM28.9816 23.5724L27.4726 22.2796C27.331 22.1583 27.147 22.0982 26.9611 22.1126C26.7751 22.1269 26.6025 22.2145 26.4812 22.3561C26.3599 22.4977 26.2998 22.6818 26.3141 22.8677C26.3285 23.0536 26.4161 23.2262 26.5577 23.3475L28.0667 24.6403C28.2083 24.7617 28.3923 24.8218 28.5782 24.8074C28.7642 24.7931 28.9368 24.7055 29.0581 24.5639C29.3109 24.269 29.2772 23.8238 28.9816 23.5724ZM22.7428 37.0469L22.932 35.2344C22.9474 35.051 22.8903 34.8688 22.7729 34.7271C22.6555 34.5853 22.4872 34.4952 22.3041 34.4761C22.121 34.457 21.9378 34.5104 21.7937 34.6249C21.6496 34.7394 21.5561 34.9059 21.5333 35.0885L21.3441 36.9011C21.3331 37.0052 21.3456 37.1105 21.3807 37.2093C21.4157 37.308 21.4724 37.3976 21.5466 37.4715C21.6405 37.5654 21.7592 37.6307 21.8887 37.66C22.0183 37.6892 22.1535 37.6811 22.2787 37.6367C22.4038 37.5923 22.5139 37.5133 22.596 37.4089C22.6782 37.3046 22.7291 37.179 22.7428 37.0469Z" fill="#FDEDA5"/>
</g>
<defs>
<clipPath id="clip0_832_2571">
<rect width="48" height="48" fill="white"/>
</clipPath>
</defs>
</svg>
